  <svg
  width="255"
  height="50"
  viewBox="0 0 240 36"
  fill="none"
  xmlns="http://www.w3.org/2000/svg"
  >
  <defs>
    <clipPath id="clip_path_1">
    <rect width="240" height="36" />
    </clipPath>
  </defs>
  <g>
    <rect width="240" height="36" />
    <path
    id="Shape"
    d="M0 0L0 30.3925L4.83146 30.3925L4.83146 4.37383L12.6966 4.37383L12.6966 0L0 0ZM24.7191 5.38318L27.0786 20.7477L22.4719 20.7477L24.7191 5.38318L24.7191 5.38318ZM21.4607 0L16.6292 30.3925L21.0112 30.3925L21.7978 24.8972L27.6405 24.8972L28.427 30.3925L33.2584 30.3925L28.5393 0L21.4607 0L21.4607 0Z"
    fill="#1d75bb"
    transform="translate(0 5.271)"
    />
    <path
    id="Shape"
    d="M9.43819 12.785C9.43819 11.4393 9.21347 10.5421 8.76404 9.98131C8.3146 9.53271 7.7528 9.30841 6.96629 9.30841C6.17978 9.30841 5.61797 9.53271 5.16854 9.98131C4.7191 10.4299 4.49438 11.215 4.49438 12.2243C4.49438 12.2243 4.49438 15.4766 4.49438 15.4766L0 15.4766C0 15.4766 0 12.5607 0 12.5607C0 10.0935 0.561798 8.18691 1.79775 6.84112C3.0337 5.49533 4.83146 4.82243 7.19101 4.82243C9.55056 4.82243 11.3483 5.49533 12.5843 6.84112C13.8202 8.18692 14.382 10.0935 14.382 12.5607C14.382 12.5607 14.382 13.3458 14.382 13.3458C14.382 16.5981 13.2584 18.729 11.0112 19.6262C12.2472 20.1869 13.1461 20.972 13.5955 22.0935C14.1573 23.215 14.382 24.5607 14.382 26.0187C14.382 26.0187 14.382 28.3738 14.382 28.3738C14.382 30.8411 13.8202 32.7477 12.5843 34.0935C11.3483 35.4393 9.55056 36.1122 7.19101 36.1122C4.83146 36.1122 3.0337 35.4393 1.79775 34.0935C0.561798 32.7477 0 30.8411 0 28.3738C0 28.3738 0 24.5608 0 24.5608L4.49438 24.5608C4.49438 24.5608 4.49438 28.7103 4.49438 28.7103C4.49438 29.8318 4.7191 30.6168 5.16854 31.0654C5.61798 31.514 6.17978 31.7383 6.96629 31.7383C7.7528 31.7383 8.31461 31.514 8.76404 31.0654C9.21348 30.6168 9.43819 29.7196 9.43819 28.3738C9.43819 28.3738 9.43819 26.0187 9.43819 26.0187C9.43819 24.5608 9.21347 23.5514 8.65168 22.9907C8.20224 22.4299 7.30336 22.0935 6.29213 22.0935C6.29213 22.0935 5.61797 22.0935 5.61797 22.0935L5.61797 17.7196C5.61797 17.7196 6.62921 17.7196 6.62921 17.7196C7.52808 17.7196 8.20224 17.4953 8.76404 17.0467C9.32584 16.5981 9.55056 15.7009 9.55056 14.5794C9.55056 14.5794 9.55056 12.785 9.55056 12.785C9.55056 12.785 9.43819 12.785 9.43819 12.785ZM34.2696 24.3365C34.2696 24.3365 34.2696 28.3738 34.2696 28.3738C34.2696 30.8411 33.7079 32.7477 32.4719 34.0935C31.236 35.4393 29.4382 36.1122 27.0786 36.1122C24.7191 36.1122 22.9213 35.4393 21.6854 34.0935C20.4494 32.7477 19.8876 30.8411 19.8876 28.3738C19.8876 28.3738 19.8876 12.5607 19.8876 12.5607C19.8876 10.0935 20.4494 8.18692 21.6854 6.84112C23.0337 5.60748 24.7191 4.93458 27.0786 4.93458C29.4382 4.93458 31.2359 5.60748 32.4719 6.95327C33.7079 8.29907 34.2696 10.2056 34.2696 12.6729C34.2696 12.6729 34.2696 15.5888 34.2696 15.5888L29.7753 15.5888C29.7753 15.5888 29.7753 12.3365 29.7753 12.3365C29.7753 11.215 29.5505 10.4299 29.1011 9.98131C28.6517 9.53271 28.0899 9.30841 27.3034 9.30841C26.5168 9.30841 25.955 9.53271 25.5056 9.98131C24.9438 10.4299 24.7191 11.215 24.7191 12.2243C24.7191 12.2243 24.7191 28.7103 24.7191 28.7103C24.7191 29.8318 24.9438 30.6168 25.3932 31.0654C25.8427 31.514 26.4045 31.7383 27.191 31.7383C27.9775 31.7383 28.5393 31.514 28.9888 31.0654C29.4382 30.6168 29.6629 29.8318 29.6629 28.7103C29.6629 28.7103 29.6629 24.3365 29.6629 24.3365L34.2696 24.3365L34.2696 24.3365ZM38.8764 5.27103L53.7079 5.27103L53.7079 9.64486L48.764 9.64486L48.764 35.6636L43.9326 35.6636L43.9326 9.64486L38.8764 9.64486L38.8764 5.27103ZM66.0674 5.27103C68.427 5.27103 70.2247 5.94393 71.4607 7.17757C72.5843 8.41122 73.2584 10.3178 73.2584 12.785C73.2584 12.785 73.2584 16.7103 73.2584 16.7103C73.2584 19.1776 72.6966 21.0841 71.4607 22.3178C70.3371 23.5514 68.5393 24.2243 66.0674 24.2243C66.0674 24.2243 63.8202 24.2243 63.8202 24.2243L63.8202 35.6636L58.9888 35.6636L58.9888 5.27103L66.0674 5.27103C66.0674 5.27103 66.0674 5.27103 66.0674 5.27103ZM63.7079 9.64486L63.7079 19.9626C63.7079 19.9626 65.955 19.9626 65.955 19.9626C66.7416 19.9626 67.3034 19.7383 67.6404 19.4019C68.0899 18.9533 68.2022 18.2804 68.2022 17.1589C68.2022 17.1589 68.2022 12.5607 68.2022 12.5607C68.2022 11.4392 67.9775 10.6542 67.6404 10.3178C67.191 9.86916 66.6292 9.75701 65.955 9.75701C65.955 9.75701 63.7079 9.75701 63.7079 9.75701L63.7079 9.64486ZM77.9775 12.5608C77.9775 10.0935 78.6517 8.18692 79.8876 6.84112C81.1236 5.49533 82.9214 4.82243 85.2809 4.82243C87.6405 4.82243 89.4382 5.49533 90.6742 6.84113C91.9101 8.18692 92.5843 10.0935 92.5843 12.5608C92.5843 12.5608 92.5843 28.3738 92.5843 28.3738C92.5843 30.8411 91.9101 32.7477 90.6742 34.0935C89.4382 35.4393 87.6405 36.1122 85.2809 36.1122C82.9214 36.1122 81.1236 35.4393 79.8876 34.0935C78.6517 32.7477 77.9775 30.8411 77.9775 28.3738C77.9775 28.3738 77.9775 12.5607 77.9775 12.5607C77.9775 12.5607 77.9775 12.5608 77.9775 12.5608ZM82.6966 28.7103C82.6966 29.8318 82.9213 30.6168 83.3708 31.0654C83.8202 31.514 84.382 31.7383 85.1685 31.7383C85.955 31.7383 86.5168 31.514 86.9663 31.0654C87.4157 30.6168 87.6404 29.8318 87.6404 28.7103C87.6404 28.7103 87.6404 12.2243 87.6404 12.2243C87.6404 11.1028 87.4157 10.3178 86.9663 9.86916C86.5168 9.42056 85.955 9.19626 85.1685 9.19626C84.382 9.19626 83.8202 9.42056 83.3708 9.86916C82.9213 10.3178 82.6966 11.1028 82.6966 12.2243C82.6966 12.2243 82.6966 28.7103 82.6966 28.7103C82.6966 28.7103 82.6966 28.7103 82.6966 28.7103ZM103.483 35.6636L98.5393 35.6636L98.5393 5.27103L102.809 5.27103L102.809 23.4393L107.753 5.27103L113.82 5.27103L113.82 35.6636L109.551 35.6636L109.551 13.6822L103.483 35.6636L103.483 35.6636ZM111.573 3.58878L101.011 3.58878L101.011 0L111.573 0L111.573 3.58879L111.573 3.58878ZM125.169 35.6636L120.337 35.6636L120.337 5.27103L135.506 5.27103L135.506 35.6636L130.562 35.6636L130.562 9.64486L125.169 9.64486L125.169 35.6636ZM149.101 5.27102C151.461 5.27102 153.258 5.94392 154.494 7.17757C155.618 8.41121 156.292 10.3178 156.292 12.785C156.292 12.785 156.292 16.7103 156.292 16.7103C156.292 19.1776 155.73 21.0841 154.494 22.3178C153.371 23.5514 151.573 24.2243 149.101 24.2243C149.101 24.2243 146.854 24.2243 146.854 24.2243L146.854 35.6636L142.022 35.6636L142.022 5.27103L149.101 5.27103C149.101 5.27103 149.101 5.27102 149.101 5.27102ZM146.854 9.64486L146.854 19.9626C146.854 19.9626 149.101 19.9626 149.101 19.9626C149.888 19.9626 150.449 19.7383 150.787 19.4019C151.236 18.9533 151.348 18.2804 151.348 17.1589C151.348 17.1589 151.348 12.5607 151.348 12.5607C151.348 11.4393 151.124 10.6542 150.787 10.3178C150.337 9.86916 149.775 9.75701 149.101 9.75701C149.101 9.75701 146.854 9.75701 146.854 9.75701L146.854 9.64486ZM161.011 12.5607C161.011 10.0935 161.685 8.18691 162.921 6.84112C164.157 5.49533 165.955 4.82243 168.315 4.82243C170.674 4.82243 172.472 5.49533 173.708 6.84112C174.944 8.18692 175.618 10.0935 175.618 12.5607C175.618 12.5607 175.618 28.3738 175.618 28.3738C175.618 30.8411 174.944 32.7477 173.708 34.0935C172.472 35.4393 170.674 36.1122 168.315 36.1122C165.955 36.1122 164.157 35.4393 162.921 34.0935C161.685 32.7477 161.011 30.8411 161.011 28.3738C161.011 28.3738 161.011 12.5607 161.011 12.5607C161.011 12.5607 161.011 12.5607 161.011 12.5607ZM165.843 28.7103C165.843 29.8318 166.067 30.6168 166.517 31.0654C166.966 31.514 167.528 31.7383 168.315 31.7383C169.101 31.7383 169.663 31.514 170.112 31.0654C170.562 30.6168 170.787 29.8318 170.787 28.7103C170.787 28.7103 170.787 12.2243 170.787 12.2243C170.787 11.1028 170.562 10.3178 170.112 9.86916C169.663 9.42056 169.101 9.19626 168.315 9.19626C167.528 9.19626 166.966 9.42056 166.517 9.86916C166.067 10.3178 165.843 11.1028 165.843 12.2243C165.843 12.2243 165.843 28.7103 165.843 28.7103C165.843 28.7103 165.843 28.7103 165.843 28.7103ZM191.798 26.9159L195.169 5.27102L201.798 5.27102L201.798 35.6636L197.303 35.6636L197.303 13.9065L193.933 35.6636L189.438 35.6636L185.843 14.1308L185.843 35.6636L181.685 35.6636L181.685 5.27103L188.315 5.27103L191.798 26.9159Z"
    fill="#1d75bb"
    transform="translate(38.202 0)"
    />
  </g>
  </svg>