<svg xmlns="http://www.w3.org/2000/svg" viewBox="0 8.890000343322754 589.3599853515625 47.650001525878906" data-asc="0.927734375" width="589.3599853515625" height="47.650001525878906"><defs/><g><g><g transform="translate(0, 0)"><path fill="#1d75bb" d="M27.49 14.70L16.06 14.70L16.06 46.39L11.40 46.39L11.40 14.70L0 14.70L0 10.84L27.49 10.84L27.49 14.70ZM40.60 46.88Q35.23 46.88 31.86 43.35Q28.49 39.82 28.49 33.91L28.49 33.08Q28.49 29.15 29.99 26.06Q31.49 22.97 34.19 21.23Q36.89 19.48 40.04 19.48Q45.19 19.48 48.05 22.88Q50.90 26.27 50.90 32.59L50.90 34.47L33.01 34.47Q33.11 38.38 35.29 40.78Q37.48 43.19 40.84 43.19Q43.24 43.19 44.90 42.21Q46.56 41.24 47.80 39.62L50.56 41.77Q47.24 46.88 40.60 46.88M40.04 23.19Q37.30 23.19 35.45 25.18Q33.59 27.17 33.15 30.76L46.39 30.76L46.39 30.42Q46.19 26.98 44.53 25.09Q42.87 23.19 40.04 23.19ZM77.78 19.97L77.78 46.39L73.24 46.39L73.24 23.71L64.26 23.71L63.72 33.59Q63.28 40.41 61.44 43.33Q59.59 46.26 55.59 46.39L53.78 46.39L53.78 42.41L55.08 42.31Q57.28 42.07 58.23 39.77Q59.18 37.48 59.45 31.27L59.94 19.97L77.78 19.97ZM96.00 46.88Q90.63 46.88 87.26 43.35Q83.89 39.82 83.89 33.91L83.89 33.08Q83.89 29.15 85.39 26.06Q86.89 22.97 89.59 21.23Q92.29 19.48 95.43 19.48Q100.59 19.48 103.44 22.88Q106.30 26.27 106.30 32.59L106.30 34.47L88.40 34.47Q88.50 38.38 90.69 40.78Q92.87 43.19 96.24 43.19Q98.63 43.19 100.29 42.21Q101.95 41.24 103.20 39.62L105.96 41.77Q102.64 46.88 96.00 46.88M95.43 23.19Q92.70 23.19 90.84 25.18Q88.99 27.17 88.55 30.76L101.78 30.76L101.78 30.42Q101.59 26.98 99.93 25.09Q98.27 23.19 95.43 23.19ZM110.55 33.67Q110.55 27.05 113.11 23.27Q115.67 19.48 120.14 19.48Q122.22 19.48 123.78 20.19L123.78 8.89L128.30 8.89L128.30 20.34Q130.00 19.48 132.30 19.48Q136.79 19.48 139.36 23.27Q141.92 27.05 141.92 34.18Q141.92 40.01 139.37 43.46Q136.82 46.90 132.35 46.90Q129.98 46.90 128.30 46.12L128.30 56.54L123.78 56.54L123.78 46.19Q122.17 46.90 120.09 46.90Q115.65 46.90 113.10 43.46Q110.55 40.01 110.55 34.03L110.55 33.67M137.40 33.67Q137.40 28.69 135.69 25.94Q133.98 23.19 130.98 23.19Q129.44 23.19 128.30 23.68L128.30 42.80Q129.39 43.21 131.03 43.21Q134.06 43.21 135.73 40.87Q137.40 38.53 137.40 33.67M115.06 34.18Q115.06 38.62 116.65 40.92Q118.24 43.21 121.22 43.21Q122.63 43.21 123.78 42.77L123.78 23.61Q122.75 23.19 121.26 23.19Q118.29 23.19 116.67 25.85Q115.06 28.52 115.06 34.18ZM146.58 32.93Q146.58 29.05 148.11 25.95Q149.63 22.85 152.36 21.17Q155.08 19.48 158.57 19.48Q163.96 19.48 167.30 23.22Q170.63 26.95 170.63 33.15L170.63 33.47Q170.63 37.33 169.15 40.39Q167.68 43.46 164.93 45.17Q162.18 46.88 158.62 46.88Q153.25 46.88 149.91 43.14Q146.58 39.40 146.58 33.25L146.58 32.93M151.12 33.47Q151.12 37.87 153.16 40.53Q155.20 43.19 158.62 43.19Q162.06 43.19 164.09 40.49Q166.11 37.79 166.11 32.93Q166.11 28.59 164.05 25.89Q161.99 23.19 158.57 23.19Q155.22 23.19 153.17 25.85Q151.12 28.52 151.12 33.47ZM197.88 46.39L193.36 46.39L193.36 35.11L181.23 35.11L181.23 46.39L176.68 46.39L176.68 19.97L181.23 19.97L181.23 31.42L193.36 31.42L193.36 19.97L197.88 19.97L197.88 46.39ZM226.71 46.39L222.19 46.39L222.19 35.11L210.06 35.11L210.06 46.39L205.52 46.39L205.52 19.97L210.06 19.97L210.06 31.42L222.19 31.42L222.19 19.97L226.71 19.97L226.71 46.39ZM238.89 29.08L245.75 29.08Q250.24 29.13 252.86 31.42Q255.47 33.72 255.47 37.65Q255.47 41.60 252.78 43.99Q250.10 46.39 245.56 46.39L234.38 46.39L234.38 19.97L238.89 19.97L238.89 29.08M264.89 46.39L260.35 46.39L260.35 19.97L264.89 19.97L264.89 46.39M238.89 32.76L238.89 42.70L245.61 42.70Q248.14 42.70 249.54 41.39Q250.93 40.09 250.93 37.82Q250.93 35.62 249.57 34.22Q248.22 32.81 245.78 32.76L238.89 32.76ZM289.87 19.97L294.38 19.97L294.38 46.39L289.87 46.39L289.87 27.12L277.69 46.39L273.17 46.39L273.17 19.97L277.69 19.97L277.69 39.26L289.87 19.97M291.09 10.35Q291.09 13.31 289.07 15.10Q287.06 16.89 283.79 16.89Q280.52 16.89 278.49 15.09Q276.46 13.28 276.46 10.35L280.15 10.35Q280.15 12.06 281.08 13.02Q282.01 13.99 283.79 13.99Q285.50 13.99 286.46 13.04Q287.43 12.08 287.43 10.35L291.09 10.35ZM324.61 43.19Q327.03 43.19 328.83 41.72Q330.64 40.26 330.83 38.06L335.11 38.06Q334.99 40.33 333.54 42.38Q332.10 44.43 329.70 45.65Q327.29 46.88 324.61 46.88Q319.21 46.88 316.03 43.27Q312.84 39.67 312.84 33.42L312.84 32.67Q312.84 28.81 314.26 25.81Q315.67 22.80 318.32 21.14Q320.97 19.48 324.58 19.48Q329.03 19.48 331.97 22.14Q334.91 24.80 335.11 29.05L330.83 29.05Q330.64 26.49 328.89 24.84Q327.15 23.19 324.58 23.19Q321.14 23.19 319.25 25.67Q317.36 28.15 317.36 32.84L317.36 33.69Q317.36 38.26 319.24 40.72Q321.12 43.19 324.61 43.19ZM361.79 46.39L357.28 46.39L357.28 23.71L345.12 23.71L345.12 46.39L340.58 46.39L340.58 19.97L361.79 19.97L361.79 46.39ZM391.36 33.47Q391.36 39.50 388.60 43.19Q385.84 46.88 381.13 46.88Q376.32 46.88 373.56 43.82L373.56 56.54L369.04 56.54L369.04 19.97L373.17 19.97L373.39 22.90Q376.15 19.48 381.05 19.48Q385.82 19.48 388.59 23.07Q391.36 26.66 391.36 33.06L391.36 33.47M386.84 32.96Q386.84 28.49 384.94 25.90Q383.03 23.32 379.71 23.32Q375.61 23.32 373.56 26.95L373.56 39.58Q375.59 43.19 379.76 43.19Q383.01 43.19 384.92 40.61Q386.84 38.04 386.84 32.96ZM413.40 46.39Q413.01 45.61 412.77 43.60Q409.62 46.88 405.25 46.88Q401.34 46.88 398.84 44.67Q396.34 42.46 396.34 39.06Q396.34 34.94 399.48 32.65Q402.61 30.37 408.30 30.37L412.70 30.37L412.70 28.30Q412.70 25.93 411.28 24.52Q409.86 23.12 407.10 23.12Q404.69 23.12 403.05 24.34Q401.42 25.56 401.42 27.29L396.88 27.29Q396.88 25.32 398.28 23.47Q399.68 21.63 402.09 20.56Q404.49 19.48 407.37 19.48Q411.94 19.48 414.53 21.77Q417.11 24.05 417.21 28.05L417.21 40.21Q417.21 43.85 418.14 46.00L418.14 46.39L413.40 46.39M405.91 42.94Q408.03 42.94 409.94 41.85Q411.84 40.75 412.70 38.99L412.70 33.57L409.16 33.57Q400.85 33.57 400.85 38.43Q400.85 40.55 402.27 41.75Q403.69 42.94 405.91 42.94ZM424.71 46.39L424.71 19.97L435.01 19.97Q440.28 19.97 443.10 21.81Q445.92 23.66 445.92 27.22Q445.92 29.05 444.82 30.53Q443.73 32.01 441.58 32.79Q443.97 33.35 445.42 34.99Q446.88 36.62 446.88 38.89Q446.88 42.53 444.20 44.46Q441.53 46.39 436.65 46.39L424.71 46.39M429.22 34.79L429.22 42.75L436.69 42.75Q439.53 42.75 440.93 41.70Q442.33 40.65 442.33 38.75Q442.33 34.79 436.52 34.79L429.22 34.79M429.22 31.18L435.06 31.18Q441.41 31.18 441.41 27.47Q441.41 23.75 435.40 23.63L429.22 23.63L429.22 31.18ZM451.66 32.93Q451.66 29.05 453.19 25.95Q454.71 22.85 457.43 21.17Q460.16 19.48 463.65 19.48Q469.04 19.48 472.38 23.22Q475.71 26.95 475.71 33.15L475.71 33.47Q475.71 37.33 474.23 40.39Q472.75 43.46 470.01 45.17Q467.26 46.88 463.70 46.88Q458.33 46.88 454.99 43.14Q451.66 39.40 451.66 33.25L451.66 32.93M456.20 33.47Q456.20 37.87 458.24 40.53Q460.28 43.19 463.70 43.19Q467.14 43.19 469.17 40.49Q471.19 37.79 471.19 32.93Q471.19 28.59 469.13 25.89Q467.07 23.19 463.65 23.19Q460.30 23.19 458.25 25.85Q456.20 28.52 456.20 33.47ZM501.32 46.39L496.78 46.39L496.78 36.82Q493.80 37.60 490.67 37.60Q485.72 37.60 483.12 35.06Q480.52 32.52 480.47 27.83L480.47 19.95L484.99 19.95L484.99 27.98Q485.11 33.89 490.67 33.89Q493.80 33.89 496.78 33.11L496.78 19.97L501.32 19.97L501.32 46.39ZM530.13 46.39L525.61 46.39L525.61 35.11L513.48 35.11L513.48 46.39L508.94 46.39L508.94 19.97L513.48 19.97L513.48 31.42L525.61 31.42L525.61 19.97L530.13 19.97L530.13 46.39ZM554.47 19.97L558.98 19.97L558.98 46.39L554.47 46.39L554.47 27.12L542.29 46.39L537.77 46.39L537.77 19.97L542.29 19.97L542.29 39.26L554.47 19.97ZM574.46 35.13L571.17 35.13L571.17 46.39L566.63 46.39L566.63 19.97L571.17 19.97L571.17 31.15L574.12 31.15L583.01 19.97L588.48 19.97L578.03 32.67L589.36 46.39L583.62 46.39L574.46 35.13Z"/></g></g></g></svg>